<mxfile host="app.diagrams.net" modified="2021-04-09T11:37:43.916Z" agent="5.0 (X11; Linux x86_64) AppleWebKit/537.36 (KHTML, like Gecko) Chrome/78.0.3904.108 Safari/537.36" etag="K08cHSQt8jZUlTdBoV7R" version="14.5.8" type="github" pages="3">
  <diagram name="Page-1" id="0783ab3e-0a74-02c8-0abd-f7b4e66b4bec">
    <mxGraphModel dx="1422" dy="740" grid="1" gridSize="10" guides="1" tooltips="1" connect="1" arrows="1" fold="1" page="1" pageScale="1" pageWidth="850" pageHeight="1100" background="#ffffff" math="0" shadow="0">
      <root>
        <mxCell id="0" />
        <mxCell id="1" parent="0" />
        <mxCell id="1c1d494c118603dd-1" value="用户配置" style="swimlane;html=1;childLayout=stackLayout;startSize=20;rounded=0;shadow=0;comic=0;labelBackgroundColor=none;strokeWidth=1;fontFamily=Verdana;fontSize=12;align=center;" parent="1" vertex="1">
          <mxGeometry x="40" y="20" width="750" height="470" as="geometry" />
        </mxCell>
        <mxCell id="1c1d494c118603dd-2" value="udcpg" style="swimlane;html=1;startSize=20;" parent="1c1d494c118603dd-1" vertex="1">
          <mxGeometry y="20" width="250" height="450" as="geometry" />
        </mxCell>
        <mxCell id="0CuGLJ741QKt6TVyk7_z-1" value="密码强度策略" style="ellipse;whiteSpace=wrap;html=1;" vertex="1" parent="1c1d494c118603dd-2">
          <mxGeometry x="90" y="80" width="70" height="60" as="geometry" />
        </mxCell>
        <mxCell id="0CuGLJ741QKt6TVyk7_z-9" value="onplyMsg" style="text;html=1;strokeColor=none;fillColor=none;align=center;verticalAlign=middle;whiteSpace=wrap;rounded=0;" vertex="1" parent="1c1d494c118603dd-2">
          <mxGeometry x="200" y="90" width="40" height="40" as="geometry" />
        </mxCell>
        <mxCell id="1c1d494c118603dd-3" value="dmcg" style="swimlane;html=1;startSize=20;" parent="1c1d494c118603dd-1" vertex="1">
          <mxGeometry x="250" y="20" width="250" height="450" as="geometry" />
        </mxCell>
        <mxCell id="0CuGLJ741QKt6TVyk7_z-2" value="system_manger 接受并解析策略" style="rounded=1;whiteSpace=wrap;html=1;" vertex="1" parent="1c1d494c118603dd-3">
          <mxGeometry x="65" y="160" width="120" height="60" as="geometry" />
        </mxCell>
        <mxCell id="1c1d494c118603dd-4" value="libudcp-common" style="swimlane;html=1;startSize=20;" parent="1c1d494c118603dd-1" vertex="1">
          <mxGeometry x="500" y="20" width="250" height="450" as="geometry" />
        </mxCell>
        <mxCell id="0CuGLJ741QKt6TVyk7_z-3" value="密码强度接口" style="rounded=1;whiteSpace=wrap;html=1;" vertex="1" parent="1c1d494c118603dd-4">
          <mxGeometry x="70" y="170" width="120" height="60" as="geometry" />
        </mxCell>
        <mxCell id="0CuGLJ741QKt6TVyk7_z-6" value="pw-ckeck接口" style="rounded=1;whiteSpace=wrap;html=1;" vertex="1" parent="1c1d494c118603dd-4">
          <mxGeometry x="65" y="320" width="120" height="60" as="geometry" />
        </mxCell>
        <mxCell id="0CuGLJ741QKt6TVyk7_z-11" value="" style="endArrow=classic;html=1;exitX=0.5;exitY=1;exitDx=0;exitDy=0;" edge="1" parent="1c1d494c118603dd-4" source="0CuGLJ741QKt6TVyk7_z-3" target="0CuGLJ741QKt6TVyk7_z-6">
          <mxGeometry width="50" height="50" relative="1" as="geometry">
            <mxPoint x="100" y="300" as="sourcePoint" />
            <mxPoint x="150" y="250" as="targetPoint" />
          </mxGeometry>
        </mxCell>
        <mxCell id="0CuGLJ741QKt6TVyk7_z-10" value="" style="endArrow=classic;html=1;entryX=0;entryY=0.5;entryDx=0;entryDy=0;exitX=1;exitY=0.5;exitDx=0;exitDy=0;" edge="1" parent="1c1d494c118603dd-1" source="0CuGLJ741QKt6TVyk7_z-2" target="0CuGLJ741QKt6TVyk7_z-3">
          <mxGeometry width="50" height="50" relative="1" as="geometry">
            <mxPoint x="430" y="300" as="sourcePoint" />
            <mxPoint x="410" y="230" as="targetPoint" />
          </mxGeometry>
        </mxCell>
        <mxCell id="0CuGLJ741QKt6TVyk7_z-7" value="" style="endArrow=classic;html=1;exitX=1;exitY=0.5;exitDx=0;exitDy=0;" edge="1" parent="1" source="0CuGLJ741QKt6TVyk7_z-1">
          <mxGeometry width="50" height="50" relative="1" as="geometry">
            <mxPoint x="400" y="300" as="sourcePoint" />
            <mxPoint x="350" y="230" as="targetPoint" />
          </mxGeometry>
        </mxCell>
      </root>
    </mxGraphModel>
  </diagram>
  <diagram id="elY53DTxVTH8tt9yHF0s" name="Page-2">
    <mxGraphModel dx="1185" dy="617" grid="1" gridSize="10" guides="1" tooltips="1" connect="1" arrows="1" fold="1" page="1" pageScale="1" pageWidth="827" pageHeight="1169" math="0" shadow="0">
      <root>
        <mxCell id="aeHfKwKuDtm2sZqZoqEZ-0" />
        <mxCell id="aeHfKwKuDtm2sZqZoqEZ-1" parent="aeHfKwKuDtm2sZqZoqEZ-0" />
        <mxCell id="aeHfKwKuDtm2sZqZoqEZ-4" value="NTP时钟同步" style="swimlane;html=1;childLayout=stackLayout;resizeParent=1;resizeParentMax=0;startSize=20;" vertex="1" parent="aeHfKwKuDtm2sZqZoqEZ-1">
          <mxGeometry x="200" y="40" width="400" height="310" as="geometry">
            <mxRectangle x="160" y="90" width="110" height="20" as="alternateBounds" />
          </mxGeometry>
        </mxCell>
        <mxCell id="aeHfKwKuDtm2sZqZoqEZ-5" value="udcpg" style="swimlane;html=1;startSize=20;" vertex="1" parent="aeHfKwKuDtm2sZqZoqEZ-4">
          <mxGeometry y="20" width="210" height="290" as="geometry" />
        </mxCell>
        <mxCell id="aeHfKwKuDtm2sZqZoqEZ-10" value="接受策略" style="ellipse;whiteSpace=wrap;html=1;aspect=fixed;" vertex="1" parent="aeHfKwKuDtm2sZqZoqEZ-5">
          <mxGeometry x="55" y="60" width="50" height="50" as="geometry" />
        </mxCell>
        <mxCell id="aeHfKwKuDtm2sZqZoqEZ-14" value="策略分发 onpolicymsg" style="text;html=1;strokeColor=none;fillColor=none;align=center;verticalAlign=middle;whiteSpace=wrap;rounded=0;" vertex="1" parent="aeHfKwKuDtm2sZqZoqEZ-5">
          <mxGeometry x="120" y="50" width="90" height="20" as="geometry" />
        </mxCell>
        <mxCell id="aeHfKwKuDtm2sZqZoqEZ-6" value="dmcg" style="swimlane;html=1;startSize=20;" vertex="1" parent="aeHfKwKuDtm2sZqZoqEZ-4">
          <mxGeometry x="210" y="20" width="190" height="290" as="geometry" />
        </mxCell>
        <mxCell id="aeHfKwKuDtm2sZqZoqEZ-11" value="策略解析" style="rounded=1;whiteSpace=wrap;html=1;" vertex="1" parent="aeHfKwKuDtm2sZqZoqEZ-6">
          <mxGeometry x="30" y="65" width="120" height="40" as="geometry" />
        </mxCell>
        <mxCell id="aeHfKwKuDtm2sZqZoqEZ-15" value="" style="endArrow=classic;html=1;" edge="1" parent="aeHfKwKuDtm2sZqZoqEZ-6">
          <mxGeometry width="50" height="50" relative="1" as="geometry">
            <mxPoint x="90" y="110" as="sourcePoint" />
            <mxPoint x="90" y="150" as="targetPoint" />
          </mxGeometry>
        </mxCell>
        <mxCell id="aeHfKwKuDtm2sZqZoqEZ-17" value="ntpt同步" style="html=1;whiteSpace=wrap;aspect=fixed;shape=isoRectangle;" vertex="1" parent="aeHfKwKuDtm2sZqZoqEZ-6">
          <mxGeometry x="56.67" y="150" width="66.67" height="40" as="geometry" />
        </mxCell>
        <mxCell id="aeHfKwKuDtm2sZqZoqEZ-18" value="同步脚本" style="rounded=1;whiteSpace=wrap;html=1;" vertex="1" parent="aeHfKwKuDtm2sZqZoqEZ-6">
          <mxGeometry x="55" y="220" width="70" height="40" as="geometry" />
        </mxCell>
        <mxCell id="aeHfKwKuDtm2sZqZoqEZ-21" value="" style="endArrow=classic;html=1;exitX=0.5;exitY=1;exitDx=0;exitDy=0;exitPerimeter=0;entryX=0.5;entryY=0;entryDx=0;entryDy=0;" edge="1" parent="aeHfKwKuDtm2sZqZoqEZ-6" source="aeHfKwKuDtm2sZqZoqEZ-17" target="aeHfKwKuDtm2sZqZoqEZ-18">
          <mxGeometry width="50" height="50" relative="1" as="geometry">
            <mxPoint x="20" y="220" as="sourcePoint" />
            <mxPoint x="50" y="200" as="targetPoint" />
            <Array as="points" />
          </mxGeometry>
        </mxCell>
        <mxCell id="aeHfKwKuDtm2sZqZoqEZ-16" style="edgeStyle=orthogonalEdgeStyle;rounded=0;orthogonalLoop=1;jettySize=auto;html=1;exitX=1;exitY=0.5;exitDx=0;exitDy=0;entryX=0;entryY=0.5;entryDx=0;entryDy=0;" edge="1" parent="aeHfKwKuDtm2sZqZoqEZ-4" source="aeHfKwKuDtm2sZqZoqEZ-10" target="aeHfKwKuDtm2sZqZoqEZ-11">
          <mxGeometry relative="1" as="geometry" />
        </mxCell>
        <mxCell id="aeHfKwKuDtm2sZqZoqEZ-22" value="Ntp" style="swimlane;html=1;childLayout=stackLayout;resizeParent=1;resizeParentMax=0;startSize=20;" vertex="1" parent="aeHfKwKuDtm2sZqZoqEZ-1">
          <mxGeometry x="140" y="430" width="480" height="360" as="geometry" />
        </mxCell>
        <mxCell id="aeHfKwKuDtm2sZqZoqEZ-23" value="udcpg" style="swimlane;html=1;startSize=20;" vertex="1" parent="aeHfKwKuDtm2sZqZoqEZ-22">
          <mxGeometry y="20" width="170" height="340" as="geometry" />
        </mxCell>
        <mxCell id="aeHfKwKuDtm2sZqZoqEZ-27" value="接受策略" style="ellipse;whiteSpace=wrap;html=1;aspect=fixed;" vertex="1" parent="aeHfKwKuDtm2sZqZoqEZ-23">
          <mxGeometry x="30" y="60" width="50" height="50" as="geometry" />
        </mxCell>
        <mxCell id="aeHfKwKuDtm2sZqZoqEZ-39" value="策略分发 onpolicymsg" style="text;html=1;strokeColor=none;fillColor=none;align=center;verticalAlign=middle;whiteSpace=wrap;rounded=0;" vertex="1" parent="aeHfKwKuDtm2sZqZoqEZ-23">
          <mxGeometry x="80" y="50" width="90" height="20" as="geometry" />
        </mxCell>
        <mxCell id="aeHfKwKuDtm2sZqZoqEZ-24" value="dmcg" style="swimlane;html=1;startSize=20;" vertex="1" parent="aeHfKwKuDtm2sZqZoqEZ-22">
          <mxGeometry x="170" y="20" width="150" height="340" as="geometry" />
        </mxCell>
        <mxCell id="aeHfKwKuDtm2sZqZoqEZ-28" value="策略解析" style="rounded=1;whiteSpace=wrap;html=1;" vertex="1" parent="aeHfKwKuDtm2sZqZoqEZ-24">
          <mxGeometry x="15" y="70" width="120" height="40" as="geometry" />
        </mxCell>
        <mxCell id="aeHfKwKuDtm2sZqZoqEZ-31" value="ntpt同步" style="html=1;whiteSpace=wrap;aspect=fixed;shape=isoRectangle;" vertex="1" parent="aeHfKwKuDtm2sZqZoqEZ-24">
          <mxGeometry x="41.66000000000002" y="180" width="66.67" height="40" as="geometry" />
        </mxCell>
        <mxCell id="aeHfKwKuDtm2sZqZoqEZ-32" value="同步脚本" style="rounded=1;whiteSpace=wrap;html=1;" vertex="1" parent="aeHfKwKuDtm2sZqZoqEZ-24">
          <mxGeometry x="39.99999999999996" y="260" width="70" height="40" as="geometry" />
        </mxCell>
        <mxCell id="aeHfKwKuDtm2sZqZoqEZ-35" value="" style="endArrow=classic;html=1;entryX=0.5;entryY=0;entryDx=0;entryDy=0;exitX=0.513;exitY=1.054;exitDx=0;exitDy=0;exitPerimeter=0;" edge="1" parent="aeHfKwKuDtm2sZqZoqEZ-24" source="aeHfKwKuDtm2sZqZoqEZ-31" target="aeHfKwKuDtm2sZqZoqEZ-32">
          <mxGeometry width="50" height="50" relative="1" as="geometry">
            <mxPoint x="20" y="170" as="sourcePoint" />
            <mxPoint x="70" y="120" as="targetPoint" />
          </mxGeometry>
        </mxCell>
        <mxCell id="aeHfKwKuDtm2sZqZoqEZ-37" value="" style="endArrow=classic;html=1;entryX=0.488;entryY=0.054;entryDx=0;entryDy=0;entryPerimeter=0;exitX=0.5;exitY=1;exitDx=0;exitDy=0;" edge="1" parent="aeHfKwKuDtm2sZqZoqEZ-24" source="aeHfKwKuDtm2sZqZoqEZ-28" target="aeHfKwKuDtm2sZqZoqEZ-31">
          <mxGeometry width="50" height="50" relative="1" as="geometry">
            <mxPoint x="20" y="130" as="sourcePoint" />
            <mxPoint x="80" y="120" as="targetPoint" />
          </mxGeometry>
        </mxCell>
        <mxCell id="aeHfKwKuDtm2sZqZoqEZ-25" value="libudcp-common" style="swimlane;html=1;startSize=20;" vertex="1" parent="aeHfKwKuDtm2sZqZoqEZ-22">
          <mxGeometry x="320" y="20" width="160" height="340" as="geometry" />
        </mxCell>
        <mxCell id="aeHfKwKuDtm2sZqZoqEZ-30" value="gsetting" style="rounded=1;whiteSpace=wrap;html=1;" vertex="1" parent="aeHfKwKuDtm2sZqZoqEZ-25">
          <mxGeometry x="40" y="135" width="80" height="40" as="geometry" />
        </mxCell>
        <mxCell id="aeHfKwKuDtm2sZqZoqEZ-40" value="保存配置" style="text;html=1;strokeColor=none;fillColor=none;align=center;verticalAlign=middle;whiteSpace=wrap;rounded=0;" vertex="1" parent="aeHfKwKuDtm2sZqZoqEZ-25">
          <mxGeometry x="40" y="80" width="50" height="30" as="geometry" />
        </mxCell>
        <mxCell id="aeHfKwKuDtm2sZqZoqEZ-36" value="" style="endArrow=classic;html=1;exitX=1;exitY=0.5;exitDx=0;exitDy=0;entryX=0.5;entryY=0;entryDx=0;entryDy=0;" edge="1" parent="aeHfKwKuDtm2sZqZoqEZ-22" source="aeHfKwKuDtm2sZqZoqEZ-28" target="aeHfKwKuDtm2sZqZoqEZ-30">
          <mxGeometry width="50" height="50" relative="1" as="geometry">
            <mxPoint x="210" y="200" as="sourcePoint" />
            <mxPoint x="270" y="190" as="targetPoint" />
          </mxGeometry>
        </mxCell>
        <mxCell id="aeHfKwKuDtm2sZqZoqEZ-33" value="" style="endArrow=classic;html=1;exitX=1;exitY=0.5;exitDx=0;exitDy=0;" edge="1" parent="aeHfKwKuDtm2sZqZoqEZ-1" source="aeHfKwKuDtm2sZqZoqEZ-27">
          <mxGeometry width="50" height="50" relative="1" as="geometry">
            <mxPoint x="290" y="530" as="sourcePoint" />
            <mxPoint x="310" y="540" as="targetPoint" />
          </mxGeometry>
        </mxCell>
        <mxCell id="aeHfKwKuDtm2sZqZoqEZ-41" value="" style="endArrow=classic;html=1;exitX=0;exitY=0.5;exitDx=0;exitDy=0;" edge="1" parent="aeHfKwKuDtm2sZqZoqEZ-1" source="aeHfKwKuDtm2sZqZoqEZ-30">
          <mxGeometry width="50" height="50" relative="1" as="geometry">
            <mxPoint x="290" y="730" as="sourcePoint" />
            <mxPoint x="380" y="620" as="targetPoint" />
          </mxGeometry>
        </mxCell>
      </root>
    </mxGraphModel>
  </diagram>
  <diagram id="6y29TWU7F-QKd-DZxoAc" name="Page-3">
    <mxGraphModel dx="1185" dy="617" grid="1" gridSize="10" guides="1" tooltips="1" connect="1" arrows="1" fold="1" page="1" pageScale="1" pageWidth="827" pageHeight="1169" math="0" shadow="0">
      <root>
        <mxCell id="SbaqsibItVyLZwXM8Ksf-0" />
        <mxCell id="SbaqsibItVyLZwXM8Ksf-1" parent="SbaqsibItVyLZwXM8Ksf-0" />
        <mxCell id="SbaqsibItVyLZwXM8Ksf-2" value="安全配置" style="swimlane;html=1;childLayout=stackLayout;resizeParent=1;resizeParentMax=0;startSize=20;" vertex="1" parent="SbaqsibItVyLZwXM8Ksf-1">
          <mxGeometry x="140" y="130" width="570" height="480" as="geometry" />
        </mxCell>
        <mxCell id="SbaqsibItVyLZwXM8Ksf-3" value="web" style="swimlane;html=1;startSize=20;" vertex="1" parent="SbaqsibItVyLZwXM8Ksf-2">
          <mxGeometry y="20" width="170" height="460" as="geometry" />
        </mxCell>
        <mxCell id="SbaqsibItVyLZwXM8Ksf-8" value="web" style="rounded=1;whiteSpace=wrap;html=1;" vertex="1" parent="SbaqsibItVyLZwXM8Ksf-3">
          <mxGeometry x="70" y="105" width="75" height="20" as="geometry" />
        </mxCell>
        <mxCell id="SbaqsibItVyLZwXM8Ksf-4" value="客户端" style="swimlane;html=1;startSize=20;" vertex="1" parent="SbaqsibItVyLZwXM8Ksf-2">
          <mxGeometry x="170" y="20" width="200" height="460" as="geometry" />
        </mxCell>
        <mxCell id="SbaqsibItVyLZwXM8Ksf-7" value="libudcp-common" style="rounded=1;whiteSpace=wrap;html=1;" vertex="1" parent="SbaqsibItVyLZwXM8Ksf-4">
          <mxGeometry x="50" y="170" width="114" height="30" as="geometry" />
        </mxCell>
        <mxCell id="SbaqsibItVyLZwXM8Ksf-28" value="dmcs 解析保存" style="rounded=1;whiteSpace=wrap;html=1;" vertex="1" parent="SbaqsibItVyLZwXM8Ksf-4">
          <mxGeometry x="57" y="100" width="100" height="30" as="geometry" />
        </mxCell>
        <mxCell id="SbaqsibItVyLZwXM8Ksf-10" value="" style="endArrow=classic;html=1;entryX=0.5;entryY=0;entryDx=0;entryDy=0;exitX=0.5;exitY=1;exitDx=0;exitDy=0;" edge="1" parent="SbaqsibItVyLZwXM8Ksf-4" source="SbaqsibItVyLZwXM8Ksf-28" target="SbaqsibItVyLZwXM8Ksf-7">
          <mxGeometry width="50" height="50" relative="1" as="geometry">
            <mxPoint x="50" y="140" as="sourcePoint" />
            <mxPoint x="110" y="140" as="targetPoint" />
          </mxGeometry>
        </mxCell>
        <mxCell id="SbaqsibItVyLZwXM8Ksf-29" value="配置信息" style="text;html=1;strokeColor=none;fillColor=none;align=center;verticalAlign=middle;whiteSpace=wrap;rounded=0;" vertex="1" parent="SbaqsibItVyLZwXM8Ksf-4">
          <mxGeometry x="-20" y="90" width="50" height="20" as="geometry" />
        </mxCell>
        <mxCell id="SbaqsibItVyLZwXM8Ksf-5" value="服务端--统一认证" style="swimlane;html=1;startSize=20;" vertex="1" parent="SbaqsibItVyLZwXM8Ksf-2">
          <mxGeometry x="370" y="20" width="200" height="460" as="geometry" />
        </mxCell>
        <mxCell id="SbaqsibItVyLZwXM8Ksf-6" value="密码修改点击" style="ellipse;whiteSpace=wrap;html=1;aspect=fixed;" vertex="1" parent="SbaqsibItVyLZwXM8Ksf-5">
          <mxGeometry x="60" y="70" width="60" height="60" as="geometry" />
        </mxCell>
        <mxCell id="SbaqsibItVyLZwXM8Ksf-11" value="规则校验" style="html=1;whiteSpace=wrap;aspect=fixed;shape=isoRectangle;" vertex="1" parent="SbaqsibItVyLZwXM8Ksf-5">
          <mxGeometry x="31.67" y="240" width="116.67" height="70" as="geometry" />
        </mxCell>
        <mxCell id="SbaqsibItVyLZwXM8Ksf-16" value="密码确认" style="rounded=1;whiteSpace=wrap;html=1;" vertex="1" parent="SbaqsibItVyLZwXM8Ksf-5">
          <mxGeometry x="45.01" y="170" width="90" height="30" as="geometry" />
        </mxCell>
        <mxCell id="SbaqsibItVyLZwXM8Ksf-17" value="" style="endArrow=classic;html=1;exitX=0.5;exitY=1;exitDx=0;exitDy=0;entryX=0.526;entryY=0.043;entryDx=0;entryDy=0;entryPerimeter=0;" edge="1" parent="SbaqsibItVyLZwXM8Ksf-5" source="SbaqsibItVyLZwXM8Ksf-16" target="SbaqsibItVyLZwXM8Ksf-11">
          <mxGeometry width="50" height="50" relative="1" as="geometry">
            <mxPoint x="130" y="260" as="sourcePoint" />
            <mxPoint x="180" y="210" as="targetPoint" />
          </mxGeometry>
        </mxCell>
        <mxCell id="SbaqsibItVyLZwXM8Ksf-19" value="" style="endArrow=classic;html=1;exitX=0.5;exitY=1;exitDx=0;exitDy=0;entryX=0.5;entryY=0;entryDx=0;entryDy=0;" edge="1" parent="SbaqsibItVyLZwXM8Ksf-5" source="SbaqsibItVyLZwXM8Ksf-6" target="SbaqsibItVyLZwXM8Ksf-16">
          <mxGeometry width="50" height="50" relative="1" as="geometry">
            <mxPoint x="140" y="170" as="sourcePoint" />
            <mxPoint x="190" y="120" as="targetPoint" />
          </mxGeometry>
        </mxCell>
        <mxCell id="SbaqsibItVyLZwXM8Ksf-21" value="成功" style="rounded=1;whiteSpace=wrap;html=1;" vertex="1" parent="SbaqsibItVyLZwXM8Ksf-5">
          <mxGeometry x="65" y="340" width="50" height="30" as="geometry" />
        </mxCell>
        <mxCell id="SbaqsibItVyLZwXM8Ksf-22" value="失败" style="rounded=1;whiteSpace=wrap;html=1;" vertex="1" parent="SbaqsibItVyLZwXM8Ksf-5">
          <mxGeometry x="140" y="320" width="50" height="30" as="geometry" />
        </mxCell>
        <mxCell id="SbaqsibItVyLZwXM8Ksf-23" value="" style="edgeStyle=segmentEdgeStyle;endArrow=classic;html=1;exitX=1.006;exitY=0.5;exitDx=0;exitDy=0;exitPerimeter=0;entryX=0.58;entryY=0.005;entryDx=0;entryDy=0;entryPerimeter=0;" edge="1" parent="SbaqsibItVyLZwXM8Ksf-5" source="SbaqsibItVyLZwXM8Ksf-11" target="SbaqsibItVyLZwXM8Ksf-22">
          <mxGeometry width="50" height="50" relative="1" as="geometry">
            <mxPoint x="120" y="430" as="sourcePoint" />
            <mxPoint x="170" y="380" as="targetPoint" />
          </mxGeometry>
        </mxCell>
        <mxCell id="SbaqsibItVyLZwXM8Ksf-24" value="" style="endArrow=classic;html=1;exitX=0.5;exitY=1;exitDx=0;exitDy=0;exitPerimeter=0;" edge="1" parent="SbaqsibItVyLZwXM8Ksf-5" source="SbaqsibItVyLZwXM8Ksf-11" target="SbaqsibItVyLZwXM8Ksf-21">
          <mxGeometry width="50" height="50" relative="1" as="geometry">
            <mxPoint x="80" y="450" as="sourcePoint" />
            <mxPoint x="130" y="400" as="targetPoint" />
          </mxGeometry>
        </mxCell>
        <mxCell id="SbaqsibItVyLZwXM8Ksf-26" value="Y" style="text;html=1;strokeColor=none;fillColor=none;align=center;verticalAlign=middle;whiteSpace=wrap;rounded=0;" vertex="1" parent="SbaqsibItVyLZwXM8Ksf-5">
          <mxGeometry x="45" y="310" width="40" height="20" as="geometry" />
        </mxCell>
        <mxCell id="SbaqsibItVyLZwXM8Ksf-27" value="N" style="text;html=1;strokeColor=none;fillColor=none;align=center;verticalAlign=middle;whiteSpace=wrap;rounded=0;" vertex="1" parent="SbaqsibItVyLZwXM8Ksf-5">
          <mxGeometry x="150" y="250" width="40" height="20" as="geometry" />
        </mxCell>
        <mxCell id="SbaqsibItVyLZwXM8Ksf-20" value="调用common&amp;nbsp; 安全配置各种规则" style="text;html=1;strokeColor=none;fillColor=none;align=center;verticalAlign=middle;whiteSpace=wrap;rounded=0;" vertex="1" parent="SbaqsibItVyLZwXM8Ksf-5">
          <mxGeometry x="-80" y="230" width="125.01" height="20" as="geometry" />
        </mxCell>
        <mxCell id="SbaqsibItVyLZwXM8Ksf-13" value="" style="endArrow=classic;html=1;exitX=1;exitY=0.75;exitDx=0;exitDy=0;entryX=0.5;entryY=0;entryDx=0;entryDy=0;entryPerimeter=0;" edge="1" parent="SbaqsibItVyLZwXM8Ksf-2" source="SbaqsibItVyLZwXM8Ksf-7" target="SbaqsibItVyLZwXM8Ksf-11">
          <mxGeometry width="50" height="50" relative="1" as="geometry">
            <mxPoint x="250" y="270" as="sourcePoint" />
            <mxPoint x="450" y="230" as="targetPoint" />
          </mxGeometry>
        </mxCell>
        <mxCell id="SbaqsibItVyLZwXM8Ksf-9" value="" style="endArrow=classic;html=1;entryX=0;entryY=0.5;entryDx=0;entryDy=0;exitX=1;exitY=0.5;exitDx=0;exitDy=0;" edge="1" parent="SbaqsibItVyLZwXM8Ksf-2" source="SbaqsibItVyLZwXM8Ksf-8" target="SbaqsibItVyLZwXM8Ksf-28">
          <mxGeometry width="50" height="50" relative="1" as="geometry">
            <mxPoint x="150" y="130" as="sourcePoint" />
            <mxPoint x="220" y="130" as="targetPoint" />
          </mxGeometry>
        </mxCell>
      </root>
    </mxGraphModel>
  </diagram>
</mxfile>
